<?xml version="1.0" encoding="utf-8"?>
<!-- Generator: Adobe Illustrator 24.1.0, SVG Export Plug-In . SVG Version: 6.00 Build 0)  -->
<svg version="1.1" id="レイヤー_1" xmlns="http://www.w3.org/2000/svg" xmlns:xlink="http://www.w3.org/1999/xlink" x="0px"
	 y="0px" viewBox="0 0 499 184" style="enable-background:new 0 0 499 184;" xml:space="preserve">
<style type="text/css">
	.st0{fill:#729391;}
	.st1{fill:#6BB2AC;}
	.st2{fill:#FFEFAE;stroke:#FFEFAE;stroke-miterlimit:10;}
	.st3{fill:url(#SVGID_1_);}
	.st4{fill:url(#SVGID_2_);}
	.st5{fill:url(#SVGID_3_);}
	.st6{fill:url(#SVGID_4_);}
	.st7{fill:url(#SVGID_5_);}
	.st8{fill:url(#SVGID_6_);}
	.st9{fill:#5B4B4B;stroke:#5B4B4B;stroke-width:1.0266;stroke-miterlimit:10;}
	.st10{fill:#68A59C;}
	.st11{fill:#8EADAC;}
	.st12{fill:#5B4B4B;stroke:#5B4B4B;stroke-miterlimit:10;}
	.st13{fill:#FFEFAE;}
	.st14{fill:#5B4B4B;}
</style>
<g>
	<path class="st0" d="M129.846,34.462c-0.572-0.566-2.475-0.461-5.086,0c0.086,0-1.064,0.32-1.29,0.827
		c-2.264,5.06-4.292,10.866-5.623,17.173c-0.137,0.65-0.335,1-1,1h-3.593c-0.777,0-1.407,0.63-1.407,1.407v3.259
		c0,0.742,0.573,1.356,1.313,1.404c2.712,0.174,8.721,0.628,11.379,0.83c0.739,0.056,1.39-0.471,1.495-1.204l0.584-4.09
		c0.121-0.847-0.537-1.606-1.393-1.606h-0.171c-0.973,0-1.652-0.964-1.325-1.88l6.445-15.24
		C130.502,35.426,130.819,34.462,129.846,34.462z"/>
	<path class="st0" d="M245.846,30.462c1.908-0.952,6.057-2.099,4-1c0.799-0.3,3.057,0.858,3.114,1.71l0.806,12.091
		c0.045,0.673-0.443,1.265-1.113,1.349l-5.481,1.685c-0.722,0.09-1.094-1.763-1.326-0.834c-1,4-0.927-13.046-0.927-13.046
		C244.876,31.851,245.315,30.661,245.846,30.462z"/>
	<path class="st0" d="M4.697,48.525c-0.521-0.188-3.968,2.272-3.968,2.272s-0.365,0.326-0.352,0.574
		c0.746,14.461,5.64,32.027,12.802,43.301c0.112,0.176,0.297,0.289,0.505,0.289h9.195c0.273,0,0.519,0.193,0.564,0.462
		c7.404,51.038,39.404,62.038,110.404,55.038c0.241-0.019,0.934-0.768,1-1c0.672-2.276,1.59-4.914,1.285-5.749
		c0.107-0.373-0.178-0.744-0.566-0.737l-54.978,0.982c-0.155,0.003-0.304-0.057-0.414-0.165L36.42,101.034
		c-0.049-0.048-0.089-0.104-0.118-0.166l-8.799-18.576c-0.096-0.202-0.299-0.331-0.523-0.331h-9.192
		c-0.261,0-0.489-0.175-0.558-0.426L8.446,49.328c-0.061-0.222-0.248-0.388-0.476-0.42l-2.963-0.423
		C4.902,48.47,4.795,48.484,4.697,48.525z"/>
	<path class="st0" d="M430.549,43.462l11.113-2.049l18.185-39.951l-7.072,1.024C436.734,3.518,427.085,29.124,430.549,43.462z"/>
	<g>
		<path class="st0" d="M294.857,111.721l-9.503,12.095c-0.305,0.388-0.337,0.93-0.08,1.35c6.553,10.711,14.293,19.64,23.007,28.709
			c0.338,0.352,0.868,0.46,1.317,0.27c4.025-1.699,7.765-3.392,11.07-5.075c0.63-0.321,0.825-1.125,0.425-1.709l-24.343-35.578
			C296.302,111.128,295.347,111.097,294.857,111.721z"/>
		<path class="st0" d="M385.846,48.462c1.33-0.71,3.075-1.43,5-2c0.799-0.3,2.057,0.858,2.114,1.71l0.806,12.091
			c0.045,0.673-0.443,1.265-1.113,1.349l-5.481,0.685c-0.722,0.09-0.531-1.498-1.428-1.166c-0.898,0.332-0.824-10.714-0.824-10.714
			C384.876,49.851,385.315,48.661,385.846,48.462z"/>
		<path class="st0" d="M191.846,61.462c1.908-0.952,6.057-2.099,4-1c0.799-0.3,3.057,0.858,3.114,1.71l-0.194,32.091
			c0.045,0.673-0.443,1.265-1.113,1.349l-5.481,1.685c-0.722,0.09-0.531-1.498-1.428-1.166c-0.898,0.332,0.176-32.714,0.176-32.714
			C190.876,62.851,191.315,61.661,191.846,61.462z"/>
		<path class="st0" d="M214.846,44.462c1.908-0.952,6.057-2.099,4-1c0.799-0.3,3.057,0.858,3.114,1.71l0.806,15.091
			c0.045,0.673-0.443,1.265-1.113,1.349l-5.481,1.685c-0.722,0.09-0.576-1.429-1.326-0.834c-1.443,1.144-1.073-15.839-0.927-16.046
			C213.876,45.851,214.315,44.661,214.846,44.462z"/>
		<path class="st0" d="M409.159,133.871l2.465,15.594c0.127,0.57,0.652,0.886,1.236,0.902c4.75,0.131,31.571-3.499,41.974-6.622
			c0.573-0.172,0.939-0.72,0.84-1.31c-0.15-2.845-0.748-5.23-1.668-9.006c-0.093-0.558-0.576-0.968-1.142-0.968H410.29
			C409.549,132.462,408.999,133.148,409.159,133.871z"/>
		<path class="st0" d="M451.846,127.462c13-1,44-11,46-40l-49,34L451.846,127.462z"/>
		<path class="st0" d="M345.967,122.462h13.759c0.619,0,1.12,0.502,1.12,1.12v7.759c0,0.619,0.502,1.12,1.12,1.12h6.836
			c0.588,0,1.076,0.454,1.118,1.041l0.856,11.981c0.04,0.56,0.494,1.007,1.055,1.042c9.481,0.592,18.941,0.625,27.964,0.011
			c0.589-0.04,1.051-0.533,1.051-1.123c0.645-2.691,0.688-4.67,0-5.785c0-0.636-0.529-1.145-1.165-1.12l-22.669,0.907
			c-0.636,0.025-1.165-0.483-1.165-1.12v-11.713c0-0.619-0.502-1.12-1.12-1.12h-6.759c-0.619,0-1.12-0.502-1.12-1.12v-7.759
			c0-0.619-0.502-1.12-1.12-1.12h-19.759c-0.619,0-1.12,0.502-1.12,1.12v4.759C344.846,121.96,345.348,122.462,345.967,122.462z"/>
		<path class="st0" d="M231.846,134.462l6.693,13.342c0.187,0.401,0.59,0.658,1.033,0.658h29.523c0.751,0,1.572-0.581,1.751-1l2-5
			c0.315-0.736-0.862-1.031-1.662-1.059l-25.784-0.921c-0.35-0.012-0.675-0.185-0.881-0.469l-7.03-9.667
			c-0.36-0.494-1.045-0.617-1.554-0.278l-3.275,2.85C232.192,133.231,231.608,133.951,231.846,134.462z"/>
		<path class="st0" d="M140.279,128.408l-1.049,3.416c-0.234,0.39-0.206,0.873,0.024,1.265
			c12.592,21.374,43.592,20.374,57.855,5.295c0.447-0.473,1.148-0.588,1.654-0.177l14.445,11.736
			c0.384,0.312,0.922,0.35,1.346,0.096l7.294-3.576c0.751-0.451,1.124-2.552,0.382-3.019l-24.793-15.611
			c-0.363-0.229-0.822-0.241-1.197-0.033l-25.841,14.356c-0.344,0.191-0.761,0.197-1.111,0.017l-27.46-14.204
			C141.275,127.684,140.598,127.876,140.279,128.408z"/>
		<path class="st1" d="M249.808,43.263l-0.425-13.19c-0.02-0.613,0.456-1.127,1.069-1.146c17.087-0.515,35.912-0.053,55.744,0.975
			c0.626,0.032,1.105,0.579,1.051,1.204l-1.781,20.483c-0.061,0.705,0.542,1.295,1.244,1.201
			c16.341-2.205,35.258-9.709,51.568-17.327c0.581-0.271,1.264,0.007,1.495,0.606l9.255,24.064c0.186,0.484,0.684,0.774,1.198,0.697
			l18.178-2.727c0.542-0.081,0.943-0.547,0.943-1.095V47.75c0-0.472,0.296-0.894,0.741-1.051
			c12.147-4.281,24.869-7.783,38.161-10.514c0.603-0.124,1.196,0.269,1.317,0.872l0.553,2.766c0.124,0.62,0.741,1.01,1.354,0.857
			l1.82-0.455c0.572-0.143,0.935-0.703,0.815-1.28c-2.577-12.36,3.707-44.753,33.239-37.983
			c29.186,6.691,19.095,38.16,17.257,43.308c-0.152,0.426-0.023,0.886,0.314,1.188c18.477,16.534,26.713,71.797-31.37,77.396
			c-0.644,0.062-1.105,0.654-0.992,1.291l2.612,14.799c0.101,0.573-0.259,1.131-0.824,1.273c-12.698,3.192-25.376,5.183-38.03,5.708
			c-0.554,0.023-1.041-0.37-1.14-0.915l-1.662-9.139c-0.096-0.526-0.554-0.909-1.089-0.909h-9.969c-0.611,0-1.107,0.496-1.107,1.107
			v5.896c0,0.567-0.425,1.048-0.988,1.109c-8.014,0.868-16.406,0.77-25.07-0.023c-0.541-0.05-0.97-0.487-1.009-1.029l-0.859-12.031
			c-0.041-0.579-0.523-1.028-1.104-1.028h-6.862c-0.611,0-1.107-0.496-1.107-1.107v-7.786c0-0.611-0.496-1.107-1.107-1.107H349.11
			c-0.46,0-0.867,0.289-1.029,0.719c-8.394,22.183-30.965,31.507-35.085,33.047c-0.398,0.149-0.84,0.058-1.149-0.233
			c-8.396-7.889-15.782-17.187-22.121-27.89c-0.229-0.387-0.203-0.88,0.068-1.24l4.225-5.633c0.547-0.73,0.027-1.771-0.886-1.771
			h-8.059c-0.441,0-0.84,0.262-1.016,0.667l-12.422,28.666c-0.175,0.405-0.575,0.667-1.016,0.667H242.03
			c-0.419,0-0.803-0.237-0.99-0.612l-4.888-9.776c-0.362-0.724-1.348-0.831-1.852-0.197c-2.934,3.689-9.752,10.615-17.373,13.383
			c-0.36,0.131-0.764,0.058-1.064-0.179l-17.489-13.807c-0.521-0.411-1.271-0.273-1.621,0.29
			c-6.53,10.498-38.255,22.306-55.089-2.992c-0.526-0.791-1.734-0.609-1.988,0.306l-4.111,14.799
			c-0.13,0.467-0.542,0.794-1.026,0.808c-38.874,1.12-101.603,11.407-108.098-55.017c-0.055-0.567-0.528-1.005-1.097-1.005h-9.305
			c-0.423,0-0.814-0.244-1.001-0.624C8.374,77.84,5.419,66.118,3.449,49.821c-0.061-0.501,0.225-0.992,0.694-1.178
			c34.003-13.533,71.076-19.434,111.21-17.725c0.564,0.024,1.029,0.472,1.07,1.034c0.574,7.768,0.334,15.354-0.86,22.726
			c-0.109,0.674,0.402,1.283,1.084,1.283h2.823c0.513,0,0.956-0.357,1.073-0.857c1.78-7.605,4.136-14.574,7.4-20.435
			c0.237-0.425,0.724-0.643,1.2-0.544c14.629,3.046,30.064,7.314,46.086,12.474c0.605,0.195,0.932,0.859,0.707,1.453
			c-3.635,9.61-8.101,19.258-13.085,28.93c-0.279,0.541-0.062,1.198,0.474,1.485c8.046,4.306,11.771,9.917,13.228,12.727
			c0.389,0.75,1.433,0.805,1.902,0.102l2.404-3.606c0.285-0.427,0.831-0.607,1.312-0.429c4.069,1.507,7.878,3.316,11.36,5.505
			c0.758,0.476,1.725-0.114,1.672-1.007c-0.598-10.024-0.544-20.294,0.08-30.778c0.035-0.582,0.513-1.04,1.095-1.047
			c3.793-0.045,16.935-0.045,20.855-0.001c0.616,0.007,1.112-0.491,1.112-1.107V44.123c0-0.632,0.528-1.136,1.16-1.106l29.142,1.388
			C249.294,44.435,249.828,43.909,249.808,43.263z"/>
		<path class="st2" d="M254.346,38.103v23.718c0,0.63,0.511,1.141,1.141,1.141h15.88c0.563,0,1.042-0.411,1.128-0.968l3.65-23.728
			c0.105-0.686-0.425-1.304-1.119-1.304h-19.539C254.857,36.962,254.346,37.472,254.346,38.103z"/>
		<path class="st2" d="M279.199,37.919l-3.65,23.722c-0.107,0.694,0.43,1.321,1.133,1.321H291.5c0.503,0,0.948-0.328,1.096-0.809
			l7.295-23.707c0.227-0.737-0.324-1.484-1.096-1.484h-18.479C279.758,36.962,279.284,37.368,279.199,37.919z"/>
		<g>
			<linearGradient id="SVGID_1_" gradientUnits="userSpaceOnUse" x1="59.8039" y1="140.8265" x2="59.8039" y2="36.604">
				<stop  offset="0.0996" style="stop-color:#FFF0DB"/>
				<stop  offset="0.6233" style="stop-color:#FFF0AF"/>
			</linearGradient>
			<path class="st3" d="M9.78,55.405c1.77,6.503,7.435,22.063,10.842,28.525c0.646,1.225,2.093,1.79,3.406,1.352l14.66-6.048
				c0.232-0.096,0.455,0.139,0.346,0.365c-10.648,22.173-7.112,61.531,51.251,61.226c0.713-0.004,1.359-0.465,1.598-1.136
				c3.464-9.73,5.572-17.514,7.025-25.821c0.161-0.922-0.582-1.744-1.515-1.676c-5.592,0.413-24.046-1.23-26.981-14.582
				c-5.066-20.648,18.507-32.095,36.339-33.116c1.41-0.081,2.546-1.168,2.668-2.575c0.406-4.698,0.254-15.941,0.506-22.39
				c0.065-1.663-1.318-3.021-2.979-2.919c-31.519,1.936-63.247,7.095-95.176,15.354C10.262,52.354,9.371,53.902,9.78,55.405z"/>
			<linearGradient id="SVGID_2_" gradientUnits="userSpaceOnUse" x1="152.2354" y1="143.9539" x2="152.2354" y2="44.0044">
				<stop  offset="0.0996" style="stop-color:#FFF0DB"/>
				<stop  offset="0.6233" style="stop-color:#FFF0AF"/>
			</linearGradient>
			<path class="st4" d="M183.332,99.319L200,106.895c1.354,0.615,2.004,2.164,1.495,3.561c-3.3,9.058-16.27,39.328-40.149,32.505
				c0,0-18-4-17-27v-2c0-2.357-4-3-5-0.5l-7.408,25.465c-0.351,1.206-1.456,2.035-2.712,2.035l-23.592,0
				c-1.799,0-3.101-1.635-2.785-3.405c3.496-19.595,22.496-79.595,29.57-91.951c0.563-0.983,1.541-1.645,2.673-1.599
				c4.776,0.193,18.397,1.214,28.874,6.615c1.355,0.698,1.88,2.372,1.216,3.744l-13.651,28.213c-0.087,0.18,0.044,0.383,0.244,0.387
				c11.737,0.235,18.535,10.139,15.571,21.996c0,0-2,6,3,7c3.513,0.703,6.961-4.346,9.117-10.93
				C179.99,99.422,181.79,98.618,183.332,99.319z"/>
			<linearGradient id="SVGID_3_" gradientUnits="userSpaceOnUse" x1="242.1294" y1="141.9616" x2="242.1294" y2="49.364">
				<stop  offset="0.0996" style="stop-color:#FFF0DB"/>
				<stop  offset="0.6233" style="stop-color:#FFF0AF"/>
			</linearGradient>
			<path class="st5" d="M272.708,69.065l10.721,14.723c0.575,0.736,0.752,1.706,0.476,2.598L266.97,139.95
				c-0.371,1.196-1.478,2.011-2.73,2.011h-17.727c-1.279,0-2.401-0.856-2.737-2.091l-5.233-19.186
				c-0.099-0.364,0.175-0.723,0.552-0.723h7.84c0.245,0,0.463-0.157,0.54-0.39l7.502-22.505c0.181-0.544-0.223-1.105-0.796-1.105
				h-8.375c-0.269,0-0.492,0.192-0.555,0.453c-5.905,24.547-22.73,40.409-26.966,43.818c-0.535,0.43-1.301,0.407-1.814-0.049
				l-15.76-14.009c-0.68-0.605-0.641-1.694,0.099-2.224c14.673-10.507,17.881-24.237,18.436-27.345
				c0.061-0.339-0.202-0.644-0.547-0.644h-14.521c-1.564,0-2.831-1.268-2.831-2.831V70.818c0-1.578,1.279-2.856,2.856-2.856
				l18.865,0c0.164,0,0.298-0.141,0.297-0.305c-0.018-4.705-0.018-7.268-0.018-14.695c0-2,0.814-3.791,2.633-3.581l20.502,2.365
				c1.058,0.122,1.89,0.968,1.969,2.03c0.224,3.003-0.059,8.079-0.068,12.762c-0.002,0.785,0.625,1.424,1.41,1.424
				c4.175,0,16.488,0,20.656,0C271.332,67.962,272.164,68.369,272.708,69.065z"/>
			<linearGradient id="SVGID_4_" gradientUnits="userSpaceOnUse" x1="331.476" y1="144.1716" x2="331.476" y2="45.0288">
				<stop  offset="0.0996" style="stop-color:#FFF0DB"/>
				<stop  offset="0.6233" style="stop-color:#FFF0AF"/>
			</linearGradient>
			<path class="st6" d="M322.677,78.693c0.065,1.658,0.083,3.262,0.066,4.824c-0.002,0.146-0.12,0.263-0.266,0.266
				c-10.737,0.275-21.082,1.337-33.148,2.916c-1.131,0.148-1.982,1.114-1.982,2.254l0,18.512c0,1.329,1.134,2.37,2.457,2.247
				c6.161-0.573,17.543-1.752,27.206-1.293c0.211,0.01,0.354,0.227,0.256,0.414c-3.773,7.232-9.346,12.348-16.266,15.878
				c-1.323,0.675-1.692,2.391-0.735,3.527l11.73,15.116c0.764,0.907,2.105,1.087,3.065,0.391
				c12.39-8.968,23.049-20.107,28.66-34.464c0.043-0.109,0.151-0.178,0.267-0.17c7.37,0.502,14.68,1.298,21.459,2.499
				c1.094,0.194,2.163-0.433,2.514-1.488l7.529-19.587c0.449-1.348-0.431-2.774-1.837-2.984c-8.671-1.292-17.34-2.225-24.378-2.848
				c-0.172-0.015-0.295-0.169-0.281-0.341c0.348-4.49,0.347-8.339-0.001-12.262c-0.012-0.141,0.07-0.272,0.203-0.321
				c3.694-1.366,7.244-2.949,10.44-4.787c0.988-0.569,1.411-1.774,0.979-2.83l-7.25-17.723c-0.522-1.275-2.061-1.807-3.24-1.094
				c-13.149,7.941-28.098,12.667-44.258,15.233c-1.343,0.213-2.215,1.527-1.869,2.841l3.877,14.731
				c0.278,1.058,1.271,1.77,2.363,1.703c5.143-0.312,9.276-0.78,12.074-1.451C322.495,78.36,322.669,78.501,322.677,78.693z"/>
			<linearGradient id="SVGID_5_" gradientUnits="userSpaceOnUse" x1="437.988" y1="139.5176" x2="437.988" y2="43.6025">
				<stop  offset="0.0996" style="stop-color:#FFF0DB"/>
				<stop  offset="0.6233" style="stop-color:#FFF0AF"/>
			</linearGradient>
			<path class="st7" d="M473.346,53.962c0,0-16.35-9.197-46.985,0.3c-0.191,0.059-0.396-0.052-0.446-0.246l-1.958-8.663
				c-0.332-1.297-1.687-2.047-2.962-1.639l-20.532,6.57c-1.187,0.38-1.87,1.622-1.555,2.828l2.105,9.056
				c0.039,0.147-0.046,0.301-0.189,0.354c-6.92,2.525-11.237,4.41-13.501,5.468c-1.113,0.52-1.608,1.833-1.124,2.963l10.217,23.84
				c0.504,1.176,1.888,1.693,3.038,1.131c1.928-0.942,5.053-2.45,8.846-4.216c0.199-0.093,0.438,0.016,0.494,0.228l12.005,45.93
				c0.304,1.164,1.484,1.871,2.654,1.59l20.681-4.963c1.217-0.292,1.959-1.523,1.649-2.735L432.95,81.54
				c-0.047-0.184,0.055-0.376,0.234-0.443c5.516-2.049,10.567-3.622,14.163-4.136c17.5-3.5,26,5,18,12
				c-3.417,2.99-11.255,3.112-15.603,2.793c-1.488-0.109-2.695,1.19-2.493,2.669l2.343,17.18c0.15,1.101,1.066,1.932,2.176,1.967
				c5.281,0.167,20.234-0.266,29.577-9.609C491.894,93.414,496.346,65.962,473.346,53.962z"/>
			<linearGradient id="SVGID_6_" gradientUnits="userSpaceOnUse" x1="389.773" y1="137.9616" x2="389.773" y2="100.9616">
				<stop  offset="0.0996" style="stop-color:#FFF0DB"/>
				<stop  offset="0.6233" style="stop-color:#FFF0AF"/>
			</linearGradient>
			<path class="st8" d="M402.095,109.97l-11.43,0.369c-0.174,0.006-0.318-0.134-0.318-0.308v-8.488c0-0.32-0.26-0.58-0.58-0.58
				h-9.84c-0.32,0-0.58,0.26-0.58,0.58v8.863c0,0.166-0.132,0.303-0.299,0.308l-7.14,0.23c-0.313,0.01-0.561,0.267-0.561,0.58v8.833
				c0,0.33,0.275,0.593,0.604,0.58l6.791-0.283c0.33-0.014,0.604,0.25,0.604,0.58v16.148c0,0.32,0.26,0.58,0.58,0.58h9.84
				c0.32,0,0.58-0.26,0.58-0.58v-16.655c0-0.311,0.245-0.567,0.556-0.58l4.144-0.173c0.125-0.005,0.202,0.133,0.133,0.237
				l-1.498,2.246c-0.184,0.276-0.104,0.649,0.178,0.825l6.979,4.362c0.278,0.174,0.644,0.083,0.809-0.2l6.473-11.097
				c0.133-0.228,0.095-0.516-0.091-0.703l-5.506-5.506C402.411,110.026,402.255,109.965,402.095,109.97z"/>
		</g>
		<path class="st9" d="M135.486,64.815c-0.417-0.262-0.943,0.081-0.88,0.569c1.15,8.859-6.636,18.269-12.359,16.637
			c-5.237-1.493-7.324-7.641,0.991-20.145c5.282-8.535,6.108-14.915,7.796-18.926c0.467-1.111,1.582-1.784,2.749-1.482
			c9.801,0.963,20.967,3.676,31.389,7.854c1.323,0.342,1.935,1.715,1.58,3.035c-1.191,4.427-4.688,13.8-6.693,17.666
			c-4.358,8.402-18.455,4.209-6.222-11.258c3.184-4.026-5.19-10.237-8.207,1.072C143.3,68.57,137.849,66.301,135.486,64.815z"/>
		<g>
			<g>
				<path class="st10" d="M114.045,179.701c1.554,2.244,1.896,2.703,2.792,3.773h-6.848c-0.369-0.815-1.132-2.167-1.817-3.237
					l-4.082-6.324l-2.66,2.575v3.213c0,1.581,0.053,2.423,0.211,3.773h-5.583c0.158-1.3,0.211-2.243,0.211-3.773v-13.666
					c0-1.556-0.053-2.55-0.211-3.774h5.583c-0.158,1.326-0.211,2.168-0.211,3.774v4.513l5.241-5.431
					c1.027-1.046,1.712-1.913,2.291-2.856h7.111c-0.474,0.459-0.659,0.663-1.027,1.021c-1.37,1.325-1.37,1.325-1.844,1.784
					l-5.504,5.584L114.045,179.701z"/>
				<path class="st10" d="M118.158,172.969c0.816,0.128,1.554,0.179,2.555,0.179h5.215c1.001,0,1.738-0.051,2.555-0.179v4.845
					c-0.869-0.127-1.58-0.179-2.555-0.179h-5.215c-0.974,0-1.686,0.052-2.555,0.179V172.969z"/>
				<path class="st10" d="M143.97,175.723c-1.343,0-1.791,0.025-2.607,0.128v-4.514c0.975,0.128,1.606,0.153,3.45,0.153h2.107
					c1.343,0,2.317-0.025,3.477-0.128c-0.132,0.97-0.185,1.811-0.185,3.468v2.856c0,1.81,0.026,2.626,0.185,3.799
					c-1.449,0.893-2.16,1.224-3.345,1.606c-1.711,0.561-3.634,0.866-5.583,0.866c-3.345,0-5.952-0.892-7.822-2.728
					c-2.001-1.938-3.107-4.973-3.107-8.466c0-6.705,4.188-10.964,10.824-10.964c3.292,0,5.794,0.995,7.532,3.034
					c0.711,0.791,1.132,1.556,1.554,2.779l-5.373,1.198c-0.29-0.917-0.605-1.402-1.185-1.835c-0.685-0.536-1.554-0.791-2.66-0.791
					c-3.371,0-5.214,2.371-5.214,6.655c0,2.371,0.553,4.207,1.606,5.329c0.843,0.892,2.133,1.377,3.792,1.377
					c1.396,0,2.528-0.281,3.819-0.918v-2.907H143.97z"/>
				<path class="st10" d="M173.945,172.765c0,6.731-4.24,11.193-10.64,11.193c-6.453,0-10.614-4.359-10.614-11.116
					c0-6.731,4.161-11.041,10.64-11.041C169.81,161.801,173.945,166.086,173.945,172.765z M168.467,172.817
					c0-4.131-1.949-6.63-5.136-6.63c-3.213,0-5.188,2.524-5.188,6.63c0,4.156,1.975,6.731,5.188,6.731
					C166.518,179.549,168.467,176.999,168.467,172.817z"/>
				<path class="st10" d="M181.613,167.385c0,1.352-0.448,2.423-1.396,3.238c-0.685,0.638-1.291,0.918-2.555,1.198l-1.159-1.938
					c1.027-0.153,1.554-0.356,2.081-0.79c0.474-0.383,0.659-0.791,0.738-1.709h-3.029v-5.125h5.32V167.385z"/>
				<path class="st10" d="M190.385,176.565c0.105,0.918,0.29,1.377,0.685,1.887c0.632,0.765,1.738,1.198,3.082,1.198
					c2.028,0,3.239-0.867,3.239-2.295c0-0.79-0.421-1.479-1.106-1.785c-0.553-0.255-1.211-0.433-3.951-1.045
					c-2.423-0.51-3.266-0.815-4.24-1.479c-1.659-1.122-2.555-2.83-2.555-4.896c0-3.927,3.266-6.4,8.454-6.4
					c3.345,0,5.899,0.994,7.322,2.907c0.658,0.841,0.974,1.606,1.317,3.06l-5.583,0.586c-0.316-1.657-1.264-2.346-3.266-2.346
					c-1.607,0-2.792,0.842-2.792,2.015c0,0.714,0.395,1.249,1.238,1.632c0.527,0.229,0.527,0.229,3.635,0.842
					c2.001,0.407,3.266,0.841,4.267,1.453c1.896,1.147,2.844,2.855,2.844,5.201c0,1.912-0.632,3.544-1.844,4.691
					c-1.527,1.428-3.845,2.167-6.926,2.167c-2.239,0-4.451-0.458-5.873-1.249c-1.317-0.714-2.292-1.811-2.845-3.264
					c-0.263-0.612-0.395-1.198-0.579-2.371L190.385,176.565z"/>
			</g>
			<g>
				<path class="st10" d="M226.408,183.095c0.158-1.121,0.211-2.269,0.211-3.773v-13.794c0-1.377-0.053-2.524-0.211-3.723
					c1.238,0.051,2.186,0.076,3.872,0.076h5.768c5.214,0,8.085,2.423,8.085,6.859c0,4.538-3.003,7.241-8.112,7.241h-4.161v3.264
					c0,1.504,0.079,2.754,0.211,3.85H226.408z M235.784,171.647c1.843,0,2.923-0.994,2.923-2.754c0-1.759-1.027-2.677-2.923-2.677
					h-3.924v5.431H235.784z"/>
				<path class="st10" d="M267.102,172.386c0,6.731-4.24,11.193-10.641,11.193c-6.452,0-10.613-4.359-10.613-11.116
					c0-6.731,4.161-11.041,10.64-11.041C262.967,161.423,267.102,165.707,267.102,172.386z M261.623,172.438
					c0-4.131-1.949-6.63-5.136-6.63c-3.213,0-5.188,2.524-5.188,6.63c0,4.156,1.976,6.731,5.188,6.731
					C259.674,179.17,261.623,176.62,261.623,172.438z"/>
				<path class="st10" d="M283.039,183.095c-0.158-0.815-0.474-1.861-1.29-3.978c-0.843-2.218-1.159-2.805-1.817-3.365
					c-0.553-0.484-1.212-0.688-2.055-0.688h-2.686v4.182c0,1.733,0.053,2.677,0.21,3.85h-5.662c0.158-1.173,0.211-1.938,0.211-3.824
					v-13.718c0-1.581-0.053-2.524-0.211-3.748c1.159,0.051,2.134,0.076,3.924,0.076h6.848c4.267,0,6.742,2.143,6.742,5.813
					c0,1.811-0.526,3.238-1.554,4.182c-0.658,0.587-1.211,0.867-2.502,1.275c1.344,0.407,1.949,0.994,2.792,2.805
					c0.395,0.815,0.764,1.683,1.948,4.437c0.29,0.714,0.606,1.352,1.265,2.702H283.039z M279.3,170.704
					c1.554,0,2.502-0.918,2.502-2.371c0-1.428-0.843-2.167-2.476-2.167h-4.135v4.538H279.3z"/>
				<path class="st10" d="M302.638,179.246c0,1.529,0.053,2.651,0.21,3.85h-5.82c0.158-1.198,0.211-2.243,0.211-3.85v-12.851h-3.107
					c-1.659,0-2.107,0.025-3.977,0.179v-4.87c0.869,0.102,2.317,0.178,3.924,0.178h11.535c1.844,0,2.897-0.051,4.108-0.178v4.87
					c-1.185-0.128-2.212-0.179-4.108-0.179h-2.976V179.246z"/>
				<path class="st10" d="M317.206,178.659c0,2.397,0.026,3.315,0.21,4.437h-5.662c0.185-1.121,0.237-2.142,0.237-4.359v-13.208
					c0-1.683-0.053-2.524-0.211-3.723c1.08,0.051,1.817,0.076,3.845,0.076h7.611c2.318,0,3.188-0.025,4.425-0.178v4.844
					c-1.158-0.127-2.186-0.178-4.398-0.178h-6.057v4.182h4.951c2.054,0,3.055-0.052,4.214-0.179v4.717
					c-1.159-0.128-2.213-0.179-4.214-0.179h-4.951V178.659z"/>
				<path class="st10" d="M350.473,172.386c0,6.731-4.24,11.193-10.641,11.193c-6.452,0-10.613-4.359-10.613-11.116
					c0-6.731,4.161-11.041,10.64-11.041C346.338,161.423,350.473,165.707,350.473,172.386z M344.994,172.438
					c0-4.131-1.949-6.63-5.136-6.63c-3.213,0-5.188,2.524-5.188,6.63c0,4.156,1.976,6.731,5.188,6.731
					C343.045,179.17,344.994,176.62,344.994,172.438z"/>
				<path class="st10" d="M366.41,183.095c-0.158-0.815-0.474-1.861-1.29-3.978c-0.843-2.218-1.159-2.805-1.817-3.365
					c-0.553-0.484-1.212-0.688-2.055-0.688h-2.686v4.182c0,1.733,0.053,2.677,0.21,3.85h-5.662c0.158-1.173,0.211-1.938,0.211-3.824
					v-13.718c0-1.581-0.053-2.524-0.211-3.748c1.159,0.051,2.134,0.076,3.924,0.076h6.848c4.267,0,6.742,2.143,6.742,5.813
					c0,1.811-0.526,3.238-1.554,4.182c-0.658,0.587-1.211,0.867-2.502,1.275c1.344,0.407,1.949,0.994,2.792,2.805
					c0.395,0.815,0.764,1.683,1.948,4.437c0.29,0.714,0.606,1.352,1.265,2.702H366.41z M362.671,170.704
					c1.554,0,2.502-0.918,2.502-2.371c0-1.428-0.843-2.167-2.476-2.167h-4.135v4.538H362.671z"/>
				<path class="st10" d="M380.557,161.882c-0.158,1.046-0.211,1.913-0.211,3.774v13.666c0,1.76,0.053,2.703,0.211,3.773h-5.794
					c0.158-0.994,0.211-2.064,0.211-3.773v-13.666c0-1.913-0.053-2.652-0.211-3.774H380.557z"/>
				<path class="st10" d="M404.42,172.386c0,6.731-4.24,11.193-10.641,11.193c-6.452,0-10.613-4.359-10.613-11.116
					c0-6.731,4.161-11.041,10.64-11.041C400.285,161.423,404.42,165.707,404.42,172.386z M398.941,172.438
					c0-4.131-1.949-6.63-5.136-6.63c-3.213,0-5.188,2.524-5.188,6.63c0,4.156,1.976,6.731,5.188,6.731
					C396.992,179.17,398.941,176.62,398.941,172.438z"/>
			</g>
		</g>
	</g>
	<path class="st11" d="M62.846,30.462"/>
	<path class="st12" d="M479.03,22.027l-0.944,0.877c-1.947,1.807-4.991,1.694-6.798-0.253h0c-1.807-1.947-1.694-4.991,0.253-6.798
		l1.766-1.639c-0.153-0.124-0.3-0.255-0.457-0.374c-3.193-2.433-7.18-3.878-11.505-3.878c-10.493,0-19,8.507-19,19s8.507,19,19,19
		s19-8.507,19-19c0-2.313-0.413-4.53-1.17-6.581C479.131,22.261,479.077,22.146,479.03,22.027z"/>
	<path class="st13" d="M482.756,12.364c-1.218-1.312-3.521-1.154-5.145,0.353l-4.122,3.542c-1.623,1.507-1.952,3.792-0.734,5.104
		c1.218,1.312,3.521,1.154,5.2-0.4l4.122-3.542C483.645,15.962,483.974,13.676,482.756,12.364z"/>
	<path class="st2" d="M477.648,35.415c-2.682,6.453-8.801,11.047-16.801,11.047c-9.389,0-17-7.611-17-17c0-9,13-9,14,1
		c1,8,10,6,14,2C474.846,29.462,478.846,31.462,477.648,35.415z"/>
	<path class="st11" d="M65.346,53.962"/>
	<path class="st14" d="M45.346,57.962c1.85,12.024,9.642,13.938,11-1c1-11,8-3,8-3c7.5,7.5,27-8,25,3c-3,15-1,19,5,19
		c6.055,0,8-5,6-13.879c0,0-3-12.121,5-6.121c10,8,6.348-15.58,6.348-15.58c-0.455-2.613-2.818-4.457-5.47-4.485
		c-39.751-0.41-69.558,5.622-94.388,15.62c-2.256,0.908-3.677,3.167-3.467,5.59c0.602,2.992,1.976,7.855,3.976,12.855
		c4.389,9.313,10,7,10,2c0,0-0.888-10.076,3.801-14.801C32.177,51.085,44.346,49.962,45.346,57.962z"/>
	<path class="st12" d="M254.943,36.437c-0.637,0.254-1.187,0.683-1.298,1.36c-0.323,1.972-0.43,6.402,0.201,9.664
		c0.784,4.048,5.5,2.5,4-1c-1.004-2.343,2.5-4.5,4.771-2.959c0.971,0.659,1.143,2.036,0.926,3.19
		c-0.35,1.865-0.558,5.339,2.302,6.769c4,2,7-2,6-9c0,0-0.782-3.127,2.493-2.469c0.804,0.162,1.768-0.29,1.887-1.102
		c0.129-0.879,0.12-2.929-0.131-3.532c-0.145-0.514-0.634-0.657-1.111-0.897C271.346,34.962,259.018,34.812,254.943,36.437z"/>
	<path class="st12" d="M284.346,43.962c4.119-2.746,5.841-1.077,6.541,0.427c0.329,0.706,0.459,1.49,0.459,2.269v6.304
		c0,1.898,2.702,4.697,5.542,0.703c0.42-0.591,0.718-1.267,0.929-1.961c1.346-4.426,2.446-8.19,2.529-12.742
		c0.018-1-0.551-1.89-1.19-2.158c-4.493-1.881-14.76-1.978-18.817-0.547c-0.648,0.229-1.282,0.987-1.435,1.657
		c-0.558,2.459-0.558,6.048-0.558,6.048S278.346,47.962,284.346,43.962z"/>
</g>
</svg>
